<svg width="59" height="49" viewBox="0 0 59 49" fill="none" xmlns="http://www.w3.org/2000/svg">
<path d="M0.989746 2.77109C0.989746 2.49087 0.989746 2.19508 0.989746 1.91486C1.44697 0.996357 2.21447 0.716135 3.24323 0.731703C5.72533 0.778406 8.20743 0.747271 10.6895 0.747271C11.7836 0.747271 12.3225 1.13647 12.6327 2.14838C12.8287 2.80223 13.0083 3.44051 13.2043 4.09436C13.5145 5.10627 13.8248 6.11818 14.1351 7.14566C14.4127 7.14566 14.6413 7.14566 14.8699 7.14566C28.6357 7.14566 42.3853 7.14566 56.1511 7.13009C57.1799 7.13009 57.9147 7.41032 58.3556 8.31325C58.3556 8.59347 58.3556 8.88926 58.3556 9.16949C58.2739 9.34073 58.1923 9.51198 58.1433 9.69879C55.9878 16.86 53.8323 24.0212 51.6931 31.1824C51.3339 32.3967 50.8603 32.7237 49.5213 32.7237C40.1318 32.7237 30.7423 32.7237 21.3364 32.7237C21.1895 32.7237 21.0425 32.7081 20.8955 32.7237C20.7812 32.7392 20.6179 32.7859 20.5689 32.8638C20.177 33.5332 19.7361 34.2026 20.1607 35.0121C20.5526 35.775 21.2548 35.9306 22.0876 35.9306C26.7415 35.9151 31.3791 35.9306 36.0331 35.9306C40.6217 35.9306 45.2266 35.9306 49.8152 35.9306C50.8603 35.9306 51.6115 36.5845 51.6278 37.503C51.6441 38.4371 50.893 39.1221 49.8152 39.1221C49.1947 39.1221 48.5905 39.1221 47.97 39.1221C46.6963 39.1221 45.4226 39.1221 44.1489 39.1221C47.4638 39.9316 48.4925 42.5625 48.2476 44.4307C47.9536 46.8593 45.8635 48.6807 43.3487 48.7274C40.785 48.7741 38.6784 47.0617 38.2539 44.5864C37.8293 42.1578 39.4133 40.0561 42.4016 39.1688C37.3068 39.1688 32.2772 39.1688 27.1171 39.1688C29.9584 39.8693 31.6241 41.971 31.3465 44.3996C31.0852 46.797 29.0277 48.6496 26.5456 48.7274C23.9492 48.8208 21.81 47.1239 21.3527 44.6331C20.9118 42.1734 22.4632 40.0873 25.5658 39.1376C24.1451 39.1376 22.8551 39.1532 21.5814 39.1376C19.3442 39.1065 17.401 37.6431 16.8131 35.5882C16.4049 34.1403 16.7478 32.8171 17.5153 31.5561C17.7439 31.1824 17.7766 30.84 17.6459 30.4041C15.4414 23.1494 13.2696 15.8792 11.0978 8.60904C10.6405 7.06782 10.167 5.51104 9.69342 3.95425C7.52158 3.95425 5.39874 3.92312 3.25956 3.96982C2.21447 3.98539 1.44697 3.70516 0.989746 2.77109Z" fill="#4F83F1"/>
</svg>
