<svg width="33" height="20" viewBox="0 0 33 20" fill="none" xmlns="http://www.w3.org/2000/svg">
<path d="M32.0495 9.32361C31.7867 8.97452 25.7644 0.530884 16.1288 0.530884C7.87274 0.530884 0.580299 8.88725 0.27371 9.23634C-0.0547784 9.62907 -0.0547784 10.1745 0.27371 10.5672C0.580299 10.9163 7.87274 19.2727 16.1288 19.2727C24.3629 19.2727 31.6772 10.9163 31.9838 10.5672C32.2904 10.2182 32.3123 9.71634 32.0495 9.32361ZM29.8158 9.84725C27.8668 11.8545 22.151 17.2218 16.1288 17.2218C10.1503 17.2218 4.45646 11.92 2.48553 9.89088C4.45646 7.88361 10.1503 2.58179 16.1288 2.58179C23.1146 2.58179 28.1514 7.83997 29.8158 9.84725Z" fill="#193A65"/>
</svg>
